<svg width="139" height="133" viewBox="0 0 139 133" fill="none" xmlns="http://www.w3.org/2000/svg">
<path d="M99.0225 38.3407H91.3152V41.88H99.0225V38.3407Z" fill="#EBEBEB"/>
<path d="M94.7235 42.8035H87.0162V46.3428H94.7235V42.8035Z" fill="#EBEBEB"/>
<path d="M103.324 42.8035H95.6171V46.3428H103.324V42.8035Z" fill="#EBEBEB"/>
<path d="M130.993 71.8706H123.286V75.4099H130.993V71.8706Z" fill="#EBEBEB"/>
<path d="M130.993 4.80445H123.286V8.34374H130.993V4.80445Z" fill="#EBEBEB"/>
<path d="M135.292 9.2673H127.585V12.8066H135.292V9.2673Z" fill="#EBEBEB"/>
<path d="M12.5477 15.1598H4.84038V18.6991H12.5477V15.1598Z" fill="#EBEBEB"/>
<path d="M4.28736 82.4505H11.9947V78.9112H4.28736V82.4505Z" fill="#EBEBEB"/>
<path d="M8.58927 77.9877H16.2966V74.4484H8.58927V77.9877Z" fill="#EBEBEB"/>
<path d="M122.928 26.0876H71.2551V28.5484H122.928V26.0876Z" fill="#EBEBEB"/>
<path d="M76.4186 28.5515H74.1512V36.696H76.4186V28.5515Z" fill="#EBEBEB"/>
<path d="M76.4186 28.5515H74.1512V31.0692H76.4186V28.5515Z" fill="#DBDBDB"/>
<path d="M120.031 28.5515H117.764V36.696H120.031V28.5515Z" fill="#EBEBEB"/>
<path d="M120.031 28.5515H117.764V31.0692H120.031V28.5515Z" fill="#DBDBDB"/>
<path d="M84.5363 26.0876V10.3965H80.9009V26.0876H84.5363Z" fill="#C7C7C7"/>
<path d="M84.5392 11.2821V9.55829H80.9039V11.2821H84.5392Z" fill="#DBDBDB"/>
<path d="M84.5363 14.1287V13.4898H80.9009V14.1287H84.5363Z" fill="#DBDBDB"/>
<path d="M84.9904 24.0317V22.3079H80.9009V24.0317H84.9904Z" fill="#DBDBDB"/>
<path d="M87.0773 26.0908V7.7839H84.5363V26.0908H87.0773Z" fill="#DBDBDB"/>
<path d="M86.5592 16.5451V9.50452H85.034V16.5451H86.5592Z" fill="#EBEBEB"/>
<path d="M105.155 24.1351L93.1744 11.2649L91.388 13.2286L103.369 26.0988L105.155 24.1351Z" fill="#C7C7C7"/>
<path d="M101.988 21.4987L97.3801 16.549L96.3079 17.7277L100.916 22.6774L101.988 21.4987Z" fill="#DBDBDB"/>
<path d="M91.3908 26.0908V12.1867H87.0744V26.0908H91.3908Z" fill="#A6A6A6"/>
<path d="M91.3938 24.6169V23.3201H87.0773V24.6169H91.3938Z" fill="#C7C7C7"/>
<path d="M91.3908 22.4724V21.9695H87.0744V22.4724H91.3908Z" fill="#C7C7C7"/>
<path d="M80.9009 26.0908V13.0248H77.9204V26.0908H80.9009Z" fill="#A6A6A6"/>
<path d="M80.898 24.7054V23.4877H77.9175V24.7054H80.898Z" fill="#C7C7C7"/>
<path d="M80.898 16.9373V15.7196H77.9175V16.9373H80.898Z" fill="#C7C7C7"/>
<path d="M80.898 18.2405V17.7692H77.9175V18.2405H80.898Z" fill="#C7C7C7"/>
<path d="M117.493 19.999L117.167 20.9321L116.969 21.5014L116.646 22.4345L115.374 26.0908H108.511L107.236 22.4345L106.913 21.5014L106.715 20.9321L106.389 19.999L108.922 15.9885L107.609 13.3411H116.28L114.961 15.9885L117.493 19.999Z" fill="#DBDBDB"/>
<path d="M117.493 19.999L117.167 20.9321H106.715L106.389 19.999H117.493Z" fill="#A6A6A6"/>
<path d="M116.969 21.5014L116.646 22.4345H107.236L106.913 21.5014H116.969Z" fill="#A6A6A6"/>
<path d="M57.1386 3.8147e-06H18.4214V64.5105H57.1386V3.8147e-06Z" fill="#EBEBEB"/>
<path d="M36.8777 2.5841H20.5287V31.2779H36.8777V2.5841Z" fill="white"/>
<path d="M55.0254 2.5841H38.6764V31.2779H55.0254V2.5841Z" fill="white"/>
<path d="M36.8777 33.2326H20.5287V61.9264H36.8777V33.2326Z" fill="white"/>
<path d="M55.0254 33.2326H38.6764V61.9264H55.0254V33.2326Z" fill="white"/>
<path d="M27.5928 3.8147e-06H18.4214V92.2935H27.5928V3.8147e-06Z" fill="#DBDBDB"/>
<path d="M25.8522 4.38695L25.9221 14.3659L25.9483 24.3449L25.9977 44.3028L25.9483 64.2607L25.9221 74.2396L25.8522 84.2186L25.7794 74.2396L25.7532 64.2607L25.7067 44.3028L25.7562 24.3449L25.7794 14.3659L25.8522 4.38695Z" fill="#EBEBEB"/>
<path d="M21.6405 6.70219L21.7104 15.6121L21.7511 24.522L21.7861 42.3418L21.7511 60.1647L21.7104 69.0746L21.6405 77.9845L21.5707 69.0746L21.5299 60.1647L21.495 42.3418L21.5299 24.522L21.5707 15.6121L21.6405 6.70219Z" fill="#EBEBEB"/>
<path d="M23.7449 8.80552L23.8177 19.2399L23.8439 29.6712L23.8904 50.54L23.8439 71.4057L23.8177 81.8401L23.7449 92.2713L23.6751 81.8401L23.6489 71.4057L23.6023 50.54L23.6489 29.6712L23.6751 19.2399L23.7449 8.80552Z" fill="#EBEBEB"/>
<path d="M20.0746 4.91515L20.1445 15.8335L20.1707 26.755L20.2201 48.5917L20.1707 70.4315L20.1474 81.353L20.0746 92.2713L20.0048 81.353L19.9786 70.4315L19.9291 48.5917L19.9786 26.755L20.0048 15.8335L20.0746 4.91515Z" fill="#EBEBEB"/>
<path d="M47.9643 92.2935H57.1356L57.1356 -7.62939e-06H47.9643L47.9643 92.2935Z" fill="#DBDBDB"/>
<path d="M49.7048 4.38695L49.7747 14.3659L49.8009 24.3449L49.8503 44.3028L49.8009 64.2607L49.7776 74.2396L49.7048 84.2186L49.635 74.2396L49.6088 64.2607L49.5593 44.3028L49.6088 24.3449L49.635 14.3659L49.7048 4.38695Z" fill="#EBEBEB"/>
<path d="M53.9165 6.70219L53.9863 15.6121L54.0271 24.522L54.062 42.3418L54.0271 60.1647L53.9863 69.0746L53.9165 77.9845L53.8437 69.0746L53.803 60.1647L53.771 42.3418L53.803 24.522L53.8437 15.6121L53.9165 6.70219Z" fill="#EBEBEB"/>
<path d="M51.8092 8.80552L51.882 19.2399L51.9082 29.6712L51.9547 50.54L51.9082 71.4057L51.882 81.8401L51.8092 92.2713L51.7393 81.8401L51.7131 71.4057L51.6637 50.54L51.7131 29.6712L51.7393 19.2399L51.8092 8.80552Z" fill="#EBEBEB"/>
<path d="M55.4824 4.91515L55.5523 15.8335L55.5785 26.755L55.6279 48.5917L55.5785 70.4315L55.5523 81.353L55.4824 92.2713L55.4096 81.353L55.3835 70.4315L55.3369 48.5917L55.3864 26.755L55.4096 15.8335L55.4824 4.91515Z" fill="#EBEBEB"/>
<path d="M0 96.5349L17.3765 96.4559L34.75 96.4305L69.5 96.3768L104.25 96.4305L121.624 96.4559L139 96.5349L121.624 96.6108L104.25 96.6393L69.5 96.6931L34.75 96.6393L17.3765 96.6108L0 96.5349Z" fill="#263238"/>
<path d="M116.024 133C126.279 133 134.593 131.52 134.593 129.695C134.593 127.869 126.279 126.39 116.024 126.39C105.768 126.39 97.4537 127.869 97.4537 129.695C97.4537 131.52 105.768 133 116.024 133Z" fill="#EBEBEB"/>
<path d="M68.1495 124.571C100.986 124.571 127.605 120.97 127.605 116.528C127.605 112.085 100.986 108.484 68.1495 108.484C35.3132 108.484 8.69405 112.085 8.69405 116.528C8.69405 120.97 35.3132 124.571 68.1495 124.571Z" fill="#EBEBEB"/>
<path d="M98.5597 101.649H40.2045L58.5269 55.1737H116.885L98.5597 101.649Z" fill="#263238"/>
<path d="M58.9577 56.1636H116.495L98.5597 101.649H41.2407L58.9577 56.1636Z" fill="#EBEBEB"/>
<path d="M58.9577 56.1636C59.1904 60.5458 58.7277 64.9388 57.5897 69.1505C55.7124 75.8242 46.41 89.1907 44.5996 98.2049L41.2407 101.649H98.5597L116.495 56.1636H58.9577Z" fill="#DBDBDB"/>
<path d="M58.9577 56.1636C58.7505 59.8991 58.2224 63.6052 57.3801 67.2338C56.9564 69.0545 56.3625 70.8233 55.6076 72.5127C54.8566 74.2017 54.0358 75.8432 53.2092 77.4848C51.5356 80.7489 49.8445 84.0035 48.2932 87.334C47.5102 88.9977 46.7884 90.6899 46.1102 92.3947C45.4381 94.1137 44.8484 95.8693 44.3434 97.6546C44.7961 95.8496 45.3412 94.0735 45.9763 92.3346C46.6312 90.6045 47.3326 88.8965 48.0923 87.217C49.6058 83.8548 51.294 80.5971 52.956 77.3234C53.7884 75.6882 54.615 74.053 55.3689 72.3767C56.1198 70.7046 56.7211 68.958 57.1648 67.1611C57.6198 65.3613 57.988 63.537 58.2679 61.6956C58.5619 59.8769 58.786 58.0234 58.9577 56.1636Z" fill="#DBDBDB"/>
<path d="M58.3698 58.8616C57.9321 62.4604 57.0986 65.989 55.887 69.3719C55.2793 71.062 54.5865 72.7145 53.8117 74.3219C53.0549 75.9381 52.2691 77.5354 51.4832 79.1358C49.9086 82.324 48.3863 85.5438 47.0561 88.8554C46.7127 89.6809 46.4071 90.5222 46.0869 91.3572C45.7667 92.1923 45.4815 93.0399 45.2137 93.8876C44.6316 95.586 44.1833 97.3256 43.7351 99.0716C44.4903 95.5384 45.5315 92.0848 46.8466 88.751C48.1389 85.4078 49.667 82.1785 51.2125 78.9776C51.9984 77.3962 52.793 75.7894 53.541 74.1827C54.2891 72.5759 55.0254 70.947 55.6454 69.2739C56.2645 67.5967 56.7989 65.8841 57.2463 64.1436C57.7191 62.4094 58.0943 60.6454 58.3698 58.8616Z" fill="#DBDBDB"/>
<path d="M77.1637 104.227H133.211L114.239 56.151H58.9577C58.9577 56.151 58.7394 63.4257 62.4068 73.9581C65.8617 83.8896 72.2535 89.8517 77.1637 104.227Z" fill="white"/>
<path d="M76.8348 104.227C76.0373 102.203 75.1699 100.217 74.2007 98.2872C73.2314 96.3578 72.1807 94.4917 71.0863 92.6287C68.9033 88.9313 66.4555 85.4205 64.3278 81.6503C63.2558 79.7639 62.3169 77.792 61.5191 75.7515C60.7578 73.6878 60.2054 71.5402 59.8716 69.3466C59.5064 67.1729 59.2537 64.9786 59.1149 62.7741C58.9592 60.575 58.9068 58.3686 58.9577 56.1636C59.2064 60.5483 59.6923 64.9133 60.413 69.2359C60.6051 70.3113 60.8409 71.374 61.0941 72.4304C61.3423 73.4845 61.6504 74.5207 62.0168 75.5332C62.7938 77.5509 63.7104 79.5016 64.7586 81.3688C66.8397 85.1263 69.2206 88.7004 71.3628 92.439C73.5336 96.1666 75.3662 100.115 76.8348 104.227Z" fill="white"/>
<path d="M59.5049 57.5522C59.7785 59.4151 60.1249 61.2654 60.5323 63.0967C60.9398 64.928 61.4055 66.7467 61.9324 68.5369C62.9612 72.1347 64.3175 75.6121 65.981 78.9176C66.8232 80.5644 67.677 82.2059 68.5424 83.8422L71.1474 88.7415C72.0206 90.3799 72.8589 92.0278 73.6506 93.7104C74.4422 95.3931 75.1641 97.1106 75.8102 98.8628C74.3817 95.4253 72.7604 92.0864 70.9553 88.8649C69.1827 85.6197 67.4247 82.362 65.7162 79.0599C64.0534 75.7324 62.7112 72.2273 61.7112 68.6002C60.6901 64.9918 59.952 61.2959 59.5049 57.5522Z" fill="#EBEBEB"/>
<path d="M78.3192 105.217H136.674L116.923 55.1737H58.5648L78.3192 105.217Z" fill="#37474F"/>
<path d="M115.986 105.217H128.824L109.073 55.1737H96.2341L115.986 105.217Z" fill="#455A64"/>
<path d="M84.3879 105.217H89.0361L69.2846 55.1737H64.6334L84.3879 105.217Z" fill="#455A64"/>
<path d="M58.9577 56.1636H117.313L117.933 54.579H57.9186L58.9577 56.1636Z" fill="#37474F"/>
<path d="M109.576 118.716H106.884V124.621H109.576V118.716Z" fill="#37474F"/>
<path d="M111.698 118.716H110.575V124.621H111.698V118.716Z" fill="#37474F"/>
<path d="M131.98 118.716H104.433V124.621H131.98V118.716Z" fill="#FFC727"/>
<path d="M129.476 118.716H126.784V124.621H129.476V118.716Z" fill="#37474F"/>
<path d="M119.176 114.31H100.067V118.716H119.176V114.31Z" fill="#455A64"/>
<path d="M127.419 114.31H119.176V118.716H127.419V114.31Z" fill="#455A64"/>
<path d="M119.176 114.766H100.067V118.258H119.176V114.766Z" fill="white"/>
<path d="M101.304 115.484C102.793 115.463 104.282 115.446 105.772 115.433L110.24 115.417L114.708 115.433C116.196 115.433 117.685 115.45 119.176 115.484C117.685 115.509 116.196 115.527 114.708 115.538L110.24 115.553L105.772 115.538C104.282 115.529 102.793 115.511 101.304 115.484Z" fill="#DBDBDB"/>
<path d="M101.304 116.17C102.793 116.145 104.282 116.128 105.772 116.12L110.24 116.104L114.708 116.12C116.196 116.12 117.685 116.136 119.176 116.17C117.685 116.196 116.196 116.212 114.708 116.221L110.249 116.237L105.781 116.221C104.285 116.212 102.793 116.196 101.304 116.17Z" fill="#DBDBDB"/>
<path d="M101.304 116.857C102.793 116.831 104.282 116.813 105.772 116.803H110.24H114.708C116.196 116.803 117.685 116.821 119.176 116.857C117.685 116.88 116.196 116.897 114.708 116.907L110.249 116.932L105.781 116.917C104.285 116.902 102.793 116.882 101.304 116.857Z" fill="#DBDBDB"/>
<path d="M101.304 117.54C102.793 117.514 104.282 117.498 105.772 117.489L110.24 117.473L114.708 117.489C116.196 117.489 117.685 117.506 119.176 117.54C117.685 117.565 116.196 117.583 114.708 117.594H110.24L105.772 117.578C104.282 117.58 102.793 117.567 101.304 117.54Z" fill="#DBDBDB"/>
<path d="M109.716 130.678H125.725V124.621H109.716V130.678Z" fill="#263238"/>
<path d="M102.806 130.678H109.713V124.621H102.806V130.678Z" fill="#263238"/>
<path d="M109.716 130.049H125.725V125.251H109.716V130.049Z" fill="white"/>
<path d="M124.686 129.062C123.44 129.088 122.192 129.104 120.942 129.113L117.199 129.129L113.45 129.113C112.205 129.113 110.957 129.096 109.707 129.062C110.955 129.037 112.203 129.02 113.45 129.012L117.194 128.996L120.937 129.012C122.188 129.018 123.438 129.035 124.686 129.062Z" fill="#DBDBDB"/>
<path d="M124.686 128.12C123.44 128.145 122.192 128.163 120.942 128.173H117.199H113.456C112.211 128.173 110.963 128.155 109.713 128.12C110.961 128.094 112.209 128.077 113.456 128.069H117.199H120.942C122.19 128.08 123.438 128.096 124.686 128.12Z" fill="#DBDBDB"/>
<path d="M124.686 127.18C123.44 127.203 122.192 127.22 120.942 127.231L117.199 127.247L113.45 127.231C112.205 127.231 110.957 127.214 109.707 127.18C110.955 127.155 112.203 127.137 113.45 127.127L117.194 127.111L120.937 127.127C122.188 127.137 123.438 127.155 124.686 127.18Z" fill="#DBDBDB"/>
<path d="M124.686 126.238C123.44 126.263 122.192 126.28 120.942 126.288L117.199 126.304L113.45 126.288C112.205 126.288 110.957 126.271 109.707 126.238C110.955 126.212 112.203 126.195 113.45 126.184H117.194L120.937 126.2C122.188 126.198 123.438 126.21 124.686 126.238Z" fill="#DBDBDB"/>
<path d="M128.746 110.199H103.572V114.326H128.746V110.199Z" fill="#FFC727"/>
<path opacity="0.2" d="M128.746 110.199H103.572V114.326H128.746V110.199Z" fill="black"/>
<path d="M115.622 111.043H105.938V113.52H115.622V111.043Z" fill="white"/>
<path d="M127.768 103.174H108.645V110.183H127.768V103.174Z" fill="#FFC727"/>
<path d="M125.739 103.174H123.958V110.183H125.739V103.174Z" fill="#263238"/>
<path d="M122.788 103.174H122.098V110.183H122.788V103.174Z" fill="#263238"/>
<path d="M33.2074 121.699L10.8858 115.31L0.500628 121.361L22.3362 129.268L33.2074 121.699Z" fill="#FFC727"/>
<path d="M31.8248 121.588L21.8705 128.547L1.40583 121.149L11.4475 115.351C11.4475 115.351 17.5598 116.227 17.8509 116.325C18.142 116.423 20.8343 117.638 20.8343 117.638C20.8343 117.638 24.6181 118.356 24.883 118.451C25.1478 118.546 31.8248 121.588 31.8248 121.588Z" fill="white"/>
<path d="M20.8401 117.641C20.0639 118.255 19.2761 118.861 18.4767 119.46L16.087 121.24L13.68 122.993C12.8766 123.57 12.0675 124.142 11.2525 124.707C12.0287 124.093 12.8174 123.488 13.6188 122.891L16.0055 121.111L18.4126 119.358C19.216 118.78 20.0193 118.198 20.8401 117.641Z" fill="#DBDBDB"/>
<path d="M29.6244 121.525C28.8967 121.215 28.172 120.899 27.4501 120.576L25.2905 119.596L24.7491 119.349L24.4842 119.235C24.3911 119.207 24.295 119.188 24.1931 119.162L23.0551 118.871C22.2983 118.675 21.5416 118.466 20.7848 118.239C21.561 118.397 22.3274 118.565 23.0842 118.742L24.231 119.01C24.327 119.036 24.4202 119.052 24.522 119.083C24.6239 119.115 24.7112 119.159 24.8131 119.197L25.3574 119.437C26.0763 119.773 26.7923 120.105 27.5054 120.45C28.2185 120.794 28.9258 121.161 29.6244 121.525Z" fill="#DBDBDB"/>
<path d="M28.9375 121.971C28.2137 121.661 27.4899 121.345 26.7661 121.022L24.6035 120.045L24.0651 119.798C23.9749 119.76 23.8846 119.716 23.7973 119.684C23.71 119.653 23.611 119.634 23.5062 119.608L22.3682 119.317C21.6114 119.121 20.8547 118.916 20.0979 118.701C20.8663 118.859 21.6318 119.017 22.3973 119.2L23.5441 119.472C23.6372 119.494 23.7333 119.513 23.8351 119.542C23.937 119.57 24.0214 119.618 24.1262 119.659L24.6705 119.899C25.3865 120.231 26.1054 120.563 26.8185 120.911C27.5316 121.259 28.2331 121.607 28.9375 121.971Z" fill="#DBDBDB"/>
<path d="M28.2447 122.414C27.5345 122.097 26.8244 121.803 26.12 121.484L24.0098 120.535L23.483 120.295C23.312 120.209 23.1348 120.139 22.9532 120.086L21.8414 119.779C21.0982 119.589 20.3579 119.39 19.6205 119.181C20.3715 119.331 21.1205 119.49 21.8676 119.659C22.2401 119.741 22.6127 119.836 22.9852 119.928C23.1734 119.982 23.3573 120.051 23.5353 120.136L24.0651 120.374C24.7665 120.69 25.468 121.025 26.1636 121.367C26.8593 121.708 27.5549 122.06 28.2447 122.414Z" fill="#DBDBDB"/>
<path d="M27.552 122.857C26.8515 122.559 26.1539 122.255 25.4593 121.943L23.3753 120.994C23.0318 120.842 22.6825 120.662 22.3391 120.538L21.2447 120.254C20.5141 120.061 19.7894 119.864 19.0559 119.659C19.7952 119.804 20.5335 119.961 21.2709 120.13C21.6405 120.212 22.0044 120.301 22.374 120.399C22.7437 120.497 23.0813 120.693 23.4306 120.848C24.1233 121.164 24.816 121.481 25.5 121.829C26.184 122.177 26.8709 122.509 27.552 122.857Z" fill="#DBDBDB"/>
<path d="M26.8564 123.303C26.1617 123.005 25.467 122.702 24.7724 122.392L22.6971 121.443C22.3536 121.291 22.0044 121.126 21.6638 120.984C21.3233 120.842 20.9362 120.798 20.5752 120.699C19.8447 120.51 19.1199 120.314 18.3923 120.108C19.1316 120.254 19.868 120.41 20.6014 120.576C20.9682 120.658 21.332 120.747 21.6987 120.845C22.0655 120.943 22.4031 121.142 22.7524 121.297C23.4422 121.614 24.132 121.93 24.816 122.271C25.5 122.613 26.1811 122.942 26.8564 123.303Z" fill="#DBDBDB"/>
<path d="M26.1636 123.745C25.468 123.448 24.7753 123.148 24.0855 122.838L22.016 121.889C21.6725 121.737 21.3262 121.572 20.9885 121.43C20.6509 121.288 20.2638 121.244 19.9029 121.145C19.1752 120.956 18.4505 120.759 17.7286 120.554C18.4621 120.699 19.1946 120.856 19.9262 121.022C20.2929 121.104 20.6567 121.193 21.0235 121.291C21.3902 121.389 21.7249 121.588 22.0713 121.743C22.7582 122.06 23.4451 122.376 24.1262 122.717C24.8073 123.059 25.4884 123.397 26.1636 123.745Z" fill="#DBDBDB"/>
<path d="M25.4709 124.207C24.784 123.913 24.1 123.616 23.4335 123.309L21.396 122.385C21.0584 122.233 20.7179 122.069 20.3802 121.927C20.0426 121.784 19.67 121.737 19.3149 121.639C18.5989 121.452 17.8829 121.259 17.1698 121.054C17.8936 121.195 18.6174 121.349 19.3411 121.516C19.702 121.601 20.0571 121.677 20.4239 121.788C20.7906 121.898 21.1108 122.085 21.4542 122.243C22.1295 122.559 22.8077 122.876 23.4917 123.192C24.1757 123.508 24.8044 123.847 25.4709 124.207Z" fill="#DBDBDB"/>
<path d="M24.7782 124.634C24.0913 124.34 23.4044 124.043 22.7233 123.736L20.6858 122.812C20.3453 122.664 20.0048 122.496 19.67 122.357C19.3353 122.218 18.9569 122.164 18.6018 122.069C17.8858 121.879 17.1698 121.686 16.4567 121.484C17.1844 121.623 17.912 121.778 18.628 121.943C18.9919 122.031 19.3469 122.104 19.7137 122.218C20.0804 122.332 20.4006 122.512 20.7411 122.67C21.4193 122.986 22.0975 123.303 22.7786 123.619C23.4597 123.935 24.1087 124.293 24.7782 124.634Z" fill="#DBDBDB"/>
<path d="M24.2019 125.156C23.5062 124.84 22.8106 124.552 22.1208 124.239L20.0513 123.29L19.018 122.822C18.6775 122.698 18.2991 122.623 17.9382 122.524C17.2105 122.332 16.4829 122.139 15.7611 121.93C16.4974 122.072 17.2338 122.23 17.9644 122.398C18.3311 122.49 18.6921 122.556 19.0646 122.683C19.4372 122.809 19.7632 122.999 20.1066 123.148C20.7935 123.464 21.4804 123.78 22.1615 124.125C22.8426 124.47 23.5121 124.795 24.2019 125.156Z" fill="#DBDBDB"/>
<path d="M23.5121 125.605C22.8193 125.305 22.1266 125.001 21.4368 124.685L19.3761 123.736L18.3399 123.258C18.0022 123.132 17.6239 123.059 17.2659 122.961C16.5411 122.768 15.8105 122.575 15.0916 122.37C15.827 122.511 16.5605 122.666 17.292 122.834C17.6588 122.926 18.0168 122.989 18.3894 123.122C18.7619 123.255 19.0821 123.439 19.4255 123.587C20.1095 123.904 20.7964 124.22 21.463 124.571C22.1295 124.922 22.831 125.257 23.5121 125.605Z" fill="#DBDBDB"/>
<path d="M22.8106 126.105C22.1382 125.808 21.4659 125.504 20.7994 125.194C20.1328 124.884 19.4692 124.561 18.7998 124.245L17.8014 123.777C17.6411 123.694 17.472 123.632 17.2979 123.594L16.7681 123.454C16.0638 123.268 15.3594 123.078 14.6579 122.876C15.3739 123.008 16.0841 123.16 16.7972 123.325L17.327 123.454C17.4172 123.476 17.5045 123.495 17.5948 123.527C17.685 123.559 17.7694 123.6 17.8567 123.638C18.1914 123.786 18.5262 123.954 18.858 124.103C19.5187 124.419 20.1852 124.735 20.843 125.077C21.5008 125.419 22.1557 125.757 22.8106 126.105Z" fill="#DBDBDB"/>
<path d="M22.1179 126.513C21.4339 126.244 20.7528 125.972 20.0804 125.687C19.4081 125.403 18.727 125.115 18.043 124.833C17.7024 124.697 17.3619 124.539 17.0272 124.416L15.9823 124.081C15.2866 123.85 14.591 123.616 13.9012 123.363C14.6084 123.549 15.3128 123.749 16.0143 123.954L17.065 124.27C17.4201 124.397 17.7519 124.542 18.0925 124.688C18.7677 124.982 19.4459 125.27 20.1154 125.577C20.7848 125.883 21.4513 126.197 22.1179 126.513Z" fill="#DBDBDB"/>
<path d="M12.0937 122.914C11.4417 122.667 10.8013 122.401 10.161 122.126L9.68366 121.924C9.52522 121.857 9.36283 121.802 9.19759 121.759L8.20506 121.462L6.2171 120.854C5.55639 120.655 4.89859 120.437 4.23787 120.222C4.90441 120.402 5.57385 120.573 6.24039 120.76L8.23708 121.323L9.23251 121.607C9.40208 121.652 9.56922 121.707 9.73314 121.772C9.89614 121.838 10.0533 121.911 10.2134 121.98C10.8508 122.271 11.4766 122.578 12.0937 122.914Z" fill="#DBDBDB"/>
<path d="M12.766 122.341C12.1257 122.13 11.4912 121.911 10.8625 121.683C10.5481 121.572 10.2338 121.446 9.91942 121.348L8.95892 121.044L7.04081 120.443C6.40047 120.244 5.76596 120.026 5.12853 119.811C5.77469 119.991 6.42085 120.159 7.0641 120.345L8.99093 120.902C9.63897 121.077 10.2782 121.288 10.9061 121.534C11.5348 121.788 12.1606 122.056 12.766 122.341Z" fill="#DBDBDB"/>
<path d="M13.4151 121.832C12.7806 121.629 12.149 121.417 11.5232 121.183L10.586 120.845L9.62836 120.582L7.71026 120.045C7.06992 119.868 6.43249 119.672 5.79506 119.485C6.44122 119.64 7.08738 119.801 7.73063 119.953L9.66038 120.443L10.6267 120.699C10.9469 120.801 11.2554 120.927 11.5668 121.047C12.1897 121.288 12.8039 121.553 13.4151 121.832Z" fill="#DBDBDB"/>
<path d="M13.971 121.455C13.3423 121.215 12.7311 120.927 12.1169 120.662C11.9687 120.59 11.8148 120.532 11.6571 120.491L11.171 120.371L10.1988 120.136C8.90458 119.822 7.61032 119.498 6.31606 119.162C7.62197 119.428 8.92496 119.708 10.225 120.004L11.2001 120.228L11.6862 120.345C11.8519 120.385 12.0138 120.442 12.1693 120.516C12.7842 120.796 13.3855 121.109 13.971 121.455Z" fill="#DBDBDB"/>
<path d="M14.5793 120.994C13.9506 120.756 13.3394 120.469 12.7253 120.203C12.5771 120.13 12.4232 120.072 12.2654 120.029L11.7793 119.912L10.8072 119.678C9.51096 119.362 8.2167 119.037 6.92439 118.704C8.23223 118.969 9.53522 119.25 10.8334 119.545L11.8084 119.77L12.2974 119.883C12.463 119.925 12.6248 119.983 12.7806 120.057C13.3947 120.335 13.9951 120.648 14.5793 120.994Z" fill="#DBDBDB"/>
<path d="M15.1877 120.535C14.559 120.295 13.9477 120.007 13.3336 119.741C13.1854 119.669 13.0314 119.612 12.8737 119.57L12.3876 119.463L11.4155 119.229C10.1212 118.915 8.82697 118.591 7.53271 118.258C8.84055 118.523 10.1435 118.803 11.4417 119.096L12.4167 119.324L12.9057 119.437C13.0717 119.478 13.2336 119.536 13.3889 119.611C14.0033 119.884 14.6037 120.192 15.1877 120.535Z" fill="#DBDBDB"/>
<path d="M15.796 120.076C15.1673 119.836 14.5561 119.548 13.9419 119.283C13.7937 119.211 13.6398 119.153 13.482 119.112L12.996 118.992L12.0238 118.757C10.7286 118.441 9.43335 118.125 8.14103 117.783C9.44887 118.049 10.7519 118.329 12.05 118.625L13.0251 118.849L13.514 118.966C13.6801 119.005 13.842 119.062 13.9972 119.137C14.6113 119.416 15.2117 119.73 15.796 120.076Z" fill="#DBDBDB"/>
<path d="M16.5819 119.706C15.9532 119.466 15.3419 119.178 14.7278 118.912C14.5794 118.841 14.4255 118.784 14.2679 118.742L13.7818 118.621L12.8097 118.387C11.5154 118.073 10.2212 117.75 8.9269 117.416C10.2347 117.682 11.5377 117.961 12.8359 118.255L13.8109 118.482L14.297 118.596C14.4628 118.636 14.6246 118.693 14.7802 118.767C15.395 119.047 15.9963 119.36 16.5819 119.706Z" fill="#DBDBDB"/>
<path d="M17.3444 119.339C16.7157 119.099 16.1074 118.811 15.4904 118.546C15.3416 118.475 15.1878 118.418 15.0305 118.375L14.5444 118.258L13.5723 118.024C12.2761 117.707 10.9818 117.383 9.68948 117.049C10.9973 117.315 12.3003 117.596 13.5985 117.891L14.5735 118.115L15.0625 118.229C15.2283 118.271 15.39 118.329 15.5457 118.403C16.1603 118.68 16.7607 118.993 17.3444 119.339Z" fill="#DBDBDB"/>
<path d="M17.9528 118.881C17.3241 118.64 16.7157 118.353 16.1016 118.09C15.9547 118.017 15.8017 117.96 15.6446 117.919L15.1586 117.809L14.198 117.594C12.8999 117.303 11.6018 117.008 10.3065 116.698C11.6144 116.937 12.9203 117.191 14.2242 117.461L15.1993 117.666L15.6883 117.774C15.8543 117.813 16.0162 117.87 16.1715 117.945C16.7799 118.223 17.3745 118.535 17.9528 118.881Z" fill="#DBDBDB"/>
<path d="M18.564 118.422C17.9382 118.182 17.3299 117.894 16.7157 117.631C16.5699 117.559 16.4178 117.501 16.2617 117.461L15.7727 117.359L14.7976 117.167C13.4966 116.904 12.1926 116.638 10.8945 116.36C12.2043 116.571 13.5121 116.794 14.818 117.031L15.7989 117.217L16.2879 117.315C16.454 117.353 16.616 117.411 16.771 117.486C17.3835 117.763 17.982 118.076 18.564 118.422Z" fill="#DBDBDB"/>
<path d="M19.1694 117.96C18.5436 117.723 17.9382 117.435 17.327 117.173C17.1812 117.101 17.0291 117.044 16.8729 117.005L16.3839 116.932L15.406 116.771C14.0991 116.559 12.7864 116.344 11.4883 116.113C12.8019 116.271 14.1136 116.446 15.4234 116.638L16.4043 116.787L16.8962 116.872C17.0632 116.906 17.2255 116.962 17.3794 117.04C17.9903 117.313 18.5878 117.62 19.1694 117.96Z" fill="#DBDBDB"/>
<path d="M21.4106 127.152C20.712 126.901 20.0164 126.644 19.3237 126.38L17.2484 125.577C16.902 125.447 16.5557 125.298 16.2151 125.175L15.1644 124.811C14.4629 124.565 13.7673 124.312 13.0745 124.046C13.7847 124.257 14.492 124.468 15.1964 124.678L16.253 125.023C16.608 125.15 16.9515 125.283 17.295 125.422C17.9848 125.7 18.6775 125.972 19.3615 126.263C20.0455 126.554 20.7295 126.851 21.4106 127.152Z" fill="#DBDBDB"/>
<path d="M11.593 123.473C10.8858 123.239 10.1843 122.999 9.48283 122.749L7.38426 121.993L6.33935 121.61L5.27697 121.272C4.5726 121.041 3.86822 120.804 3.16676 120.554C3.88278 120.741 4.59588 120.943 5.30899 121.149L6.37428 121.465C6.73228 121.585 7.07865 121.708 7.43083 121.841C8.12647 122.104 8.82503 122.36 9.51775 122.635C10.2105 122.91 10.9032 123.189 11.593 123.473Z" fill="#DBDBDB"/>
<path d="M119.825 79.9012C119.243 79.4331 100.111 72.9903 99.2408 73.2433C99.1448 73.2718 98.9497 74.208 98.0766 76.5264C98.0358 76.6339 88.9401 88.6182 88.9401 88.6182L101.389 95.7568L108.502 84.8733C108.502 84.8733 117.391 83.042 118.32 82.6593C119.248 82.2766 120.436 80.3693 119.825 79.9012Z" fill="#AD6359"/>
<path d="M119.825 79.9012C119.243 79.4331 100.111 72.9903 99.2408 73.2433C99.1448 73.2718 98.9497 74.208 98.0766 76.5264C98.0358 76.6339 96.7901 78.2059 96.1817 79.0567C96.9734 79.7968 104.623 85.6545 106.709 87.5966L108.494 84.8638C108.494 84.8638 117.383 83.0325 118.311 82.6498C119.24 82.2671 120.436 80.3693 119.825 79.9012Z" fill="#FFC727"/>
<path d="M102.882 75.2612C102.785 75.4986 102.661 75.7218 102.512 75.9255C102.221 76.3301 101.846 76.655 101.418 76.8743C100.982 77.0946 100.501 77.1893 100.021 77.1495C99.5454 77.0981 99.0853 76.9386 98.6703 76.6814C98.647 76.6814 98.6703 76.6276 98.6907 76.6434C99.1039 76.8618 99.5587 76.9707 100.018 76.9614C100.477 76.952 100.928 76.8246 101.334 76.5897C101.721 76.372 102.056 76.0603 102.314 75.6787C102.439 75.4921 102.545 75.2917 102.632 75.081C102.677 74.9787 102.714 74.8729 102.745 74.7647C102.777 74.654 102.786 74.5622 102.885 74.499C102.908 74.4852 102.935 74.4817 102.961 74.4894C102.987 74.4971 103.008 74.5153 103.022 74.5401C103.132 74.7299 102.952 75.0904 102.882 75.2612Z" fill="white"/>
<path d="M115.802 83.276C115.382 83.1053 115.021 82.7969 114.769 82.3936C114.488 81.9839 114.255 81.5377 114.076 81.0652C113.896 80.6033 113.77 80.1188 113.701 79.6229C113.669 79.3817 113.648 79.1389 113.64 78.8954C113.619 78.6468 113.633 78.3964 113.68 78.1521C113.683 78.1428 113.688 78.1345 113.695 78.1286C113.702 78.1228 113.711 78.1196 113.72 78.1196C113.729 78.1196 113.737 78.1228 113.744 78.1286C113.752 78.1345 113.757 78.1428 113.759 78.1521C113.8 78.3641 113.791 78.5949 113.814 78.81C113.838 79.0533 113.873 79.295 113.919 79.5343C114.009 79.9995 114.137 80.4547 114.303 80.8944C114.607 81.7849 115.156 82.5524 115.875 83.0926C115.894 83.1055 115.907 83.1252 115.914 83.1482C115.92 83.1711 115.919 83.1959 115.91 83.2179C115.902 83.2399 115.886 83.2579 115.866 83.2685C115.846 83.2792 115.824 83.2818 115.802 83.276Z" fill="white"/>
<path d="M106.718 85.0915C104.39 83.2697 102.082 81.4289 99.7327 79.6324C99.0691 79.1232 98.4113 78.6044 97.7418 78.1079C97.7186 78.092 97.7418 78.0573 97.7651 78.0731C100.226 79.6793 102.605 81.4299 104.89 83.3172C105.537 83.858 106.162 84.4242 106.785 84.9935C106.793 85.0044 106.797 85.0178 106.798 85.0317C106.798 85.0456 106.794 85.0592 106.786 85.0703C106.779 85.0815 106.768 85.0896 106.756 85.0934C106.743 85.0973 106.73 85.0966 106.718 85.0915Z" fill="white"/>
<path d="M97.963 78.5127C97.9551 78.5314 97.9443 78.5486 97.931 78.5633L97.8786 78.6013L97.7768 78.674C97.7069 78.7246 97.6341 78.7752 97.5614 78.8195C97.4158 78.9081 97.2703 78.9903 97.119 79.0694C97.0986 79.0694 97.0782 79.0441 97.0986 79.0314C97.2383 78.9365 97.3751 78.8385 97.5119 78.7373L97.7098 78.5886L97.8146 78.5095C97.8462 78.4815 97.8829 78.4611 97.9223 78.4495C97.9295 78.4487 97.9368 78.45 97.9433 78.4533C97.9499 78.4566 97.9556 78.4617 97.9597 78.4681C97.9639 78.4746 97.9663 78.4821 97.9669 78.4899C97.9675 78.4978 97.9662 78.5056 97.963 78.5127Z" fill="white"/>
<path d="M99.0487 79.3793C99.0414 79.3993 99.0294 79.4168 99.0138 79.43L98.9614 79.4711L98.8624 79.5438C98.7897 79.5944 98.7198 79.645 98.6441 79.6893C98.5015 79.7779 98.3531 79.8601 98.2046 79.9392C98.1813 79.9392 98.1639 79.9139 98.1842 79.9012C98.324 79.8063 98.4608 79.7051 98.5946 79.6039L98.7955 79.4584L98.9003 79.3793C98.9312 79.3501 98.9681 79.3295 99.008 79.3193C99.0148 79.3188 99.0216 79.3201 99.0278 79.3233C99.034 79.3264 99.0394 79.3312 99.0435 79.3372C99.0476 79.3432 99.0502 79.3502 99.0511 79.3575C99.052 79.3649 99.0512 79.3724 99.0487 79.3793Z" fill="white"/>
<path d="M100.131 80.2428C100.124 80.262 100.113 80.2792 100.099 80.2934L100.047 80.3314L99.9452 80.4041C99.8753 80.4579 99.8026 80.5053 99.7298 80.5528C99.5843 80.6413 99.4387 80.7236 99.2874 80.7995C99.267 80.7995 99.2466 80.7774 99.267 80.7615C99.4067 80.6698 99.5581 80.5686 99.6803 80.4674C99.7443 80.4168 99.8113 80.3693 99.8782 80.3219L99.983 80.2428C100.013 80.2124 100.05 80.1916 100.091 80.1827C100.098 80.1811 100.105 80.1818 100.112 80.1846C100.119 80.1874 100.124 80.1923 100.129 80.1986C100.133 80.2049 100.136 80.2125 100.136 80.2203C100.137 80.2281 100.135 80.2359 100.131 80.2428Z" fill="white"/>
<path d="M101.226 81.1189C101.218 81.1384 101.206 81.1557 101.191 81.1695L101.139 81.2075L101.04 81.2803C100.967 81.3309 100.897 81.3815 100.821 81.4257C100.679 81.5143 100.53 81.5965 100.382 81.6756C100.377 81.6777 100.372 81.678 100.367 81.6763C100.363 81.6746 100.359 81.6711 100.356 81.6664C100.354 81.6618 100.353 81.6563 100.354 81.651C100.355 81.6457 100.357 81.6409 100.361 81.6377C100.501 81.5428 100.638 81.4447 100.772 81.3435L100.973 81.1949L101.077 81.1158C101.109 81.0878 101.146 81.0673 101.185 81.0557C101.192 81.0558 101.199 81.0576 101.205 81.0612C101.211 81.0647 101.216 81.0697 101.22 81.0759C101.224 81.0821 101.227 81.0892 101.228 81.0967C101.229 81.1042 101.228 81.1118 101.226 81.1189Z" fill="white"/>
<path d="M102.303 81.9856C102.294 82.0043 102.282 82.0213 102.268 82.0362L102.215 82.0773L102.114 82.15C102.044 82.2007 101.971 82.2513 101.898 82.2955C101.753 82.3841 101.607 82.4663 101.456 82.5454C101.435 82.5454 101.415 82.5201 101.435 82.5075C101.575 82.4126 101.712 82.3145 101.849 82.2101L102.047 82.0647L102.151 81.9856C102.182 81.9564 102.219 81.9358 102.259 81.9255C102.266 81.9244 102.273 81.9253 102.28 81.9282C102.287 81.9311 102.292 81.9358 102.297 81.9419C102.301 81.948 102.304 81.9552 102.305 81.9629C102.306 81.9705 102.305 81.9784 102.303 81.9856Z" fill="white"/>
<path d="M103.386 82.8554C103.378 82.8753 103.366 82.8928 103.351 82.906L103.298 82.9439L103.199 83.0198L102.981 83.1653C102.838 83.2539 102.69 83.3361 102.541 83.4152C102.537 83.4157 102.532 83.4147 102.528 83.4124C102.524 83.41 102.521 83.4064 102.519 83.402C102.516 83.3976 102.516 83.3926 102.516 83.3877C102.516 83.3827 102.518 83.378 102.521 83.3741C102.661 83.2824 102.798 83.1812 102.931 83.0799L103.132 82.9344L103.237 82.8554C103.267 82.825 103.305 82.8042 103.345 82.7953C103.352 82.7948 103.358 82.7962 103.365 82.7993C103.371 82.8024 103.376 82.8072 103.38 82.8132C103.384 82.8192 103.387 82.8262 103.388 82.8336C103.389 82.8409 103.388 82.8484 103.386 82.8554Z" fill="white"/>
<path d="M104.471 83.722C104.461 83.7401 104.449 83.7571 104.436 83.7726L104.384 83.8106L104.282 83.8833C104.212 83.9339 104.139 83.9845 104.067 84.0288C103.921 84.1205 103.776 84.1996 103.624 84.2787C103.604 84.2787 103.583 84.2534 103.604 84.2407C103.744 84.1458 103.88 84.0478 104.017 83.9466L104.215 83.7979L104.32 83.7188C104.351 83.6912 104.388 83.6717 104.428 83.6619C104.435 83.6608 104.442 83.6618 104.448 83.6646C104.455 83.6675 104.461 83.6722 104.465 83.6783C104.47 83.6844 104.473 83.6916 104.474 83.6993C104.475 83.707 104.474 83.7148 104.471 83.722Z" fill="white"/>
<path d="M105.554 84.5918C105.547 84.6122 105.535 84.6299 105.519 84.6424C105.503 84.6579 105.485 84.6716 105.467 84.6835L105.368 84.7563C105.298 84.8069 105.225 84.8575 105.149 84.9018C105.007 84.9903 104.858 85.0726 104.71 85.1516C104.69 85.1516 104.669 85.1263 104.689 85.1137C104.829 85.0188 104.981 84.9207 105.1 84.8164L105.301 84.6709L105.406 84.5918C105.437 84.5638 105.474 84.5433 105.513 84.5317C105.52 84.5301 105.528 84.5308 105.534 84.5336C105.541 84.5364 105.547 84.5413 105.551 84.5476C105.556 84.5539 105.558 84.5614 105.559 84.5693C105.559 84.5771 105.557 84.5849 105.554 84.5918Z" fill="white"/>
<path d="M106.64 85.4616C106.63 85.4803 106.619 85.4973 106.605 85.5122L106.552 85.5533C106.518 85.5757 106.485 85.6 106.453 85.6261L106.235 85.7716C106.09 85.8601 105.944 85.9424 105.793 86.0214C105.772 86.0214 105.755 85.9961 105.772 85.9803C105.915 85.8886 106.063 85.7874 106.186 85.6862L106.383 85.5407L106.488 85.4616C106.52 85.433 106.556 85.4124 106.596 85.4015C106.603 85.4004 106.61 85.4014 106.617 85.4042C106.623 85.4071 106.629 85.4118 106.634 85.4179C106.638 85.424 106.641 85.4312 106.642 85.4389C106.643 85.4466 106.642 85.4544 106.64 85.4616Z" fill="white"/>
<path d="M105.056 90.4463L94.0774 81.0557C94.0774 81.0557 82.8016 96.712 82.6095 96.8196C82.6095 96.8196 74.8032 96.9208 67.6518 98.4675C66.374 98.7426 59.5748 95.1369 51.9693 102.089L53.1132 115.035C65.0729 116.895 81.7567 114.086 88.8673 111.556C95.5822 109.18 105.056 90.4463 105.056 90.4463Z" fill="#263238"/>
<path d="M103.519 91.6704C101.048 89.4563 98.5568 87.2676 95.9518 85.2244C95.2125 84.6424 94.4528 84.0952 93.7252 83.4974C93.7019 83.4753 93.6757 83.5196 93.699 83.5417C94.3335 84.0762 94.9331 84.6582 95.5559 85.2086C96.1788 85.7589 96.7988 86.3093 97.4275 86.8501C98.682 87.9287 99.9772 88.9471 101.264 89.9751C102 90.5634 102.742 91.139 103.485 91.7147C103.519 91.7336 103.554 91.6925 103.519 91.6704Z" fill="#455A64"/>
<path d="M95.0903 86.2776C93.1139 89.1242 91.1289 91.9709 89.1613 94.8459C88.1775 96.2777 87.1918 97.7094 86.2041 99.1411C85.7675 99.7737 85.3309 100.353 84.6091 100.574C84.2495 100.671 83.8836 100.737 83.5147 100.773L82.2922 100.935C79.0478 101.371 75.8015 101.805 72.5533 102.238C71.7441 102.361 70.9283 102.427 70.1112 102.434C69.2957 102.398 68.484 102.292 67.6838 102.117C66.2299 101.847 64.7521 101.761 63.28 101.861C60.3624 102.107 57.5136 102.948 54.8828 104.341C54.5481 104.515 54.2163 104.692 53.8874 104.875C53.8612 104.891 53.8874 104.932 53.9136 104.92C56.6246 103.477 59.5494 102.568 62.5523 102.234C64.0311 102.075 65.5221 102.106 66.994 102.329C67.7798 102.453 68.557 102.646 69.3487 102.725C70.1626 102.792 70.9806 102.771 71.7907 102.661C73.4206 102.475 75.0477 102.231 76.6747 102.013L81.5646 101.358C82.3766 101.248 83.1916 101.156 83.9978 101.026C84.6587 100.968 85.2821 100.669 85.7675 100.179C86.2571 99.5752 86.7065 98.9347 87.1122 98.2619C87.607 97.5249 88.1077 96.7911 88.6054 96.0478C90.5584 93.1759 92.494 90.2914 94.4266 87.4131L95.1543 86.3314C95.1921 86.2903 95.1135 86.2333 95.0903 86.2776Z" fill="#455A64"/>
<path d="M88.7771 57.296C88.163 57.7388 75.9092 74.9386 75.8248 75.9128C75.8248 76.0203 76.5495 76.5454 78.2464 78.2439C78.3279 78.3229 78.4094 78.9935 78.488 79.9993C78.7791 83.7789 79.0178 92.3188 79.0178 92.3188L91.8536 88.887L89.659 74.3377L89.0914 70.558C89.0914 70.558 90.6253 60.87 90.6166 59.7852C90.6079 58.7003 89.3912 56.8373 88.7771 57.296Z" fill="#AD6359"/>
<path d="M88.7771 57.296C88.163 57.7388 75.9092 74.9386 75.8248 75.9128C75.8248 76.0203 76.5495 76.5454 78.2464 78.2439C78.3279 78.3229 78.4094 78.9935 78.488 79.9993C80.5895 78.8986 87.0395 75.6598 89.659 74.3472L89.0914 70.5675C89.0914 70.5675 90.6253 60.8795 90.6166 59.7947C90.6079 58.7098 89.3912 56.8374 88.7771 57.296Z" fill="#FFC727"/>
<path d="M78.8402 72.9144C79.0106 73.0958 79.1592 73.2998 79.2826 73.5217C79.5346 73.9607 79.6882 74.458 79.7309 74.9734C79.7656 75.4946 79.6785 76.0168 79.4776 76.4916C79.268 76.9575 78.9705 77.3702 78.6044 77.703C78.5841 77.722 78.5579 77.6872 78.5782 77.6682C78.9087 77.3227 79.1599 76.8978 79.3116 76.4275C79.4632 75.9572 79.5112 75.4548 79.4514 74.9608C79.3975 74.4914 79.2462 74.0416 79.009 73.645C78.8921 73.4517 78.7565 73.2725 78.6044 73.1105C78.5308 73.0288 78.452 72.9527 78.3687 72.8827C78.2814 72.81 78.2057 72.7689 78.1853 72.6455C78.1819 72.6171 78.1889 72.5883 78.2046 72.5653C78.2203 72.5423 78.2437 72.5269 78.2697 72.5222C78.4706 72.4747 78.718 72.7815 78.8402 72.9144Z" fill="white"/>
<path d="M90.2761 62.5717C89.9807 62.9404 89.587 63.2002 89.1497 63.315C88.6987 63.4567 88.2334 63.5374 87.7642 63.5553C87.3032 63.5766 86.8415 63.534 86.3904 63.4288C86.1707 63.3786 85.9539 63.3142 85.7413 63.2359C85.52 63.1705 85.309 63.0692 85.1155 62.9354C85.1088 62.9297 85.1039 62.9218 85.1015 62.9128C85.0992 62.9039 85.0995 62.8944 85.1024 62.8856C85.1053 62.8769 85.1106 62.8693 85.1177 62.8641C85.1248 62.8588 85.1332 62.8561 85.1417 62.8563C85.3396 62.888 85.5347 62.9797 85.7238 63.0303C85.9408 63.0871 86.1604 63.1314 86.3816 63.1631C86.8137 63.2374 87.2514 63.266 87.6885 63.2485C88.5628 63.2544 89.4172 62.9648 90.1335 62.4199C90.2266 62.3661 90.3401 62.48 90.2761 62.5717Z" fill="white"/>
<path d="M88.8091 72.9049C86.2274 74.2586 83.6398 75.5965 81.0698 76.9787C80.3421 77.3709 79.6144 77.7536 78.8897 78.1616C78.8635 78.1616 78.8489 78.1332 78.8722 78.1174C81.3431 76.5306 83.8906 75.0894 86.5039 73.8C87.249 73.4394 88.0058 73.1105 88.7625 72.7879C88.7768 72.7812 88.793 72.7809 88.8074 72.7871C88.8219 72.7933 88.8335 72.8056 88.8397 72.8211C88.8459 72.8366 88.8461 72.8541 88.8404 72.8699C88.8346 72.8856 88.8234 72.8982 88.8091 72.9049Z" fill="white"/>
<path d="M79.3198 78.1427C79.3304 78.16 79.3383 78.1793 79.3429 78.1996C79.3442 78.2228 79.3442 78.246 79.3429 78.2692C79.3429 78.3135 79.3429 78.3577 79.3429 78.3989C79.3429 78.4937 79.3574 78.5855 79.3603 78.6772C79.3603 78.8575 79.3603 79.0378 79.3603 79.218C79.3603 79.2433 79.3198 79.2433 79.3198 79.218C79.3198 79.0409 79.2938 78.8606 79.2765 78.6835C79.2765 78.5981 79.2591 78.5096 79.2534 78.4242C79.2476 78.3388 79.2534 78.3324 79.2389 78.285C79.2287 78.2425 79.2287 78.1978 79.2389 78.1553C79.2407 78.1457 79.2451 78.1369 79.2516 78.1302C79.2581 78.1234 79.2664 78.1191 79.2753 78.1177C79.2841 78.1163 79.2932 78.1179 79.3012 78.1224C79.3092 78.1269 79.3157 78.134 79.3198 78.1427Z" fill="white"/>
<path d="M80.5366 77.5196C80.5491 77.5361 80.558 77.5556 80.5626 77.5765C80.5626 77.5986 80.5626 77.6239 80.5626 77.6461C80.5626 77.6682 80.5626 77.7315 80.5626 77.7758C80.5718 77.8682 80.5766 77.9611 80.577 78.0541C80.577 78.2344 80.577 78.4147 80.577 78.5949C80.577 78.6203 80.5366 78.6203 80.5366 78.5949C80.5366 78.4147 80.5105 78.2375 80.4932 78.0604L80.4672 77.8011C80.4672 77.7536 80.4672 77.7093 80.4672 77.6619C80.457 77.6194 80.457 77.5747 80.4672 77.5322C80.4687 77.524 80.4724 77.5165 80.4779 77.5107C80.4834 77.5049 80.4903 77.501 80.4979 77.4996C80.5054 77.4982 80.5131 77.4994 80.5201 77.503C80.527 77.5065 80.5327 77.5123 80.5366 77.5196Z" fill="white"/>
<path d="M81.756 76.8965C81.7675 76.9138 81.7763 76.933 81.782 76.9534C81.782 76.9756 81.782 77.0009 81.782 77.023C81.782 77.0451 81.782 77.1084 81.782 77.1527C81.7913 77.2451 81.7961 77.338 81.7965 77.431C81.7965 77.6123 81.7965 77.7926 81.7965 77.9719C81.7965 77.994 81.7589 77.9972 81.756 77.9719C81.756 77.7916 81.7329 77.6145 81.7156 77.4373L81.6896 77.178C81.6896 77.1305 81.6896 77.0862 81.6751 77.0388C81.6679 76.9959 81.6679 76.952 81.6751 76.9091C81.6744 76.9033 81.6747 76.8974 81.676 76.8917C81.6773 76.886 81.6797 76.8807 81.6829 76.876C81.6861 76.8713 81.6901 76.8673 81.6948 76.8643C81.6994 76.8613 81.7045 76.8593 81.7098 76.8585C81.7151 76.8577 81.7205 76.858 81.7257 76.8595C81.7309 76.8609 81.7358 76.8635 81.7401 76.867C81.7444 76.8705 81.748 76.875 81.7507 76.88C81.7535 76.8851 81.7553 76.8907 81.756 76.8965Z" fill="white"/>
<path d="M82.9756 76.2734C82.9873 76.2901 82.9952 76.3096 82.9987 76.3303C83.0003 76.3535 83.0003 76.3767 82.9987 76.3999C82.9987 76.441 82.9987 76.4853 82.9987 76.5296C82.9987 76.6213 82.9987 76.713 83.0131 76.8047C83.0131 76.9861 83.0131 77.1664 83.0131 77.3456C83.0131 77.3515 83.011 77.3571 83.0072 77.3613C83.0034 77.3654 82.9983 77.3677 82.9929 77.3677C82.9875 77.3677 82.9824 77.3654 82.9786 77.3613C82.9748 77.3571 82.9727 77.3515 82.9727 77.3456C82.9727 77.1653 82.9496 76.9882 82.9293 76.8111C82.9293 76.7225 82.9149 76.6371 82.9062 76.5486C82.8975 76.46 82.9062 76.4568 82.8918 76.4125C82.8832 76.3688 82.8832 76.3235 82.8918 76.2797C82.891 76.2675 82.8947 76.2555 82.902 76.2463C82.9093 76.2371 82.9197 76.2315 82.9308 76.2307C82.9419 76.2298 82.9528 76.2339 82.9612 76.2419C82.9696 76.2499 82.9748 76.2612 82.9756 76.2734Z" fill="white"/>
<path d="M84.1951 75.6503C84.2057 75.6677 84.2135 75.6869 84.2182 75.7072V75.7768C84.2182 75.8179 84.2182 75.8622 84.2182 75.9065C84.2182 75.9508 84.2182 76.0899 84.2327 76.1817C84.2327 76.3619 84.2327 76.5422 84.2327 76.7225C84.2327 76.7478 84.1922 76.751 84.1922 76.7225C84.1922 76.5454 84.1662 76.3683 84.1489 76.1912C84.1489 76.1026 84.1344 76.0172 84.1258 75.9286C84.1171 75.8401 84.1258 75.8369 84.1113 75.7926C84.1012 75.749 84.1012 75.7034 84.1113 75.6598C84.1102 75.6476 84.1135 75.6355 84.1205 75.626C84.1276 75.6165 84.1378 75.6104 84.1489 75.6092C84.16 75.6079 84.1711 75.6115 84.1798 75.6193C84.1884 75.627 84.194 75.6381 84.1951 75.6503Z" fill="white"/>
<path d="M85.4118 75.0272C85.4243 75.0437 85.4332 75.0632 85.4378 75.0841C85.4392 75.1062 85.4392 75.1284 85.4378 75.1505C85.4378 75.1948 85.4378 75.2391 85.4378 75.2834C85.4469 75.3748 85.4517 75.4666 85.4522 75.5586C85.4522 75.7389 85.4522 75.9191 85.4522 76.0994C85.4522 76.1247 85.4118 76.1247 85.4118 76.0994C85.4118 75.9223 85.3858 75.7452 85.3684 75.5649C85.3684 75.4795 85.3511 75.3941 85.3453 75.3055C85.3395 75.217 85.3453 75.2138 85.3309 75.1695C85.3207 75.1259 85.3207 75.0803 85.3309 75.0367C85.3297 75.0249 85.3329 75.0132 85.3396 75.004C85.3464 74.9948 85.3563 74.9889 85.367 74.9877C85.3777 74.9864 85.3885 74.9899 85.3969 74.9973C85.4053 75.0047 85.4106 75.0155 85.4118 75.0272Z" fill="white"/>
<path d="M86.6314 74.4041C86.6435 74.421 86.6523 74.4404 86.6574 74.461C86.6574 74.4832 86.6574 74.5053 86.6574 74.5275C86.6574 74.5496 86.6574 74.616 86.6574 74.6571C86.6574 74.752 86.6719 74.8437 86.6719 74.9355C86.6719 75.1168 86.6719 75.2971 86.6719 75.4763C86.6719 75.5016 86.6343 75.5016 86.6314 75.4763C86.6314 75.2992 86.6083 75.1189 86.591 74.9418L86.565 74.6824C86.565 74.6382 86.565 74.5907 86.565 74.5464C86.5564 74.5026 86.5564 74.4574 86.565 74.4136C86.5736 74.3851 86.617 74.3756 86.6314 74.4041Z" fill="white"/>
<path d="M87.8509 73.7779C87.8626 73.7946 87.8705 73.8141 87.874 73.8348C87.8752 73.858 87.8752 73.8812 87.874 73.9044C87.874 73.9486 87.874 73.9929 87.874 74.034C87.874 74.1289 87.874 74.2207 87.8884 74.3124C87.8884 74.4937 87.8884 74.674 87.8884 74.8532C87.8884 74.8785 87.8509 74.8785 87.848 74.8532C87.848 74.6761 87.8249 74.4958 87.8046 74.3187C87.8046 74.2333 87.7902 74.1448 87.7815 74.0594C87.7728 73.974 87.7815 73.9676 87.7671 73.9202C87.7589 73.8774 87.7589 73.8333 87.7671 73.7905C87.7679 73.7798 87.772 73.7696 87.7788 73.7618C87.7856 73.754 87.7946 73.7489 87.8043 73.7475C87.8141 73.746 87.824 73.7482 87.8325 73.7537C87.8409 73.7592 87.8474 73.7678 87.8509 73.7779Z" fill="white"/>
<path d="M89.0704 73.1548C89.0821 73.1715 89.0901 73.191 89.0935 73.2117V73.2813C89.0935 73.3255 89.0935 73.3667 89.0935 73.4109C89.0935 73.5027 89.0935 73.5944 89.108 73.6893C89.108 73.8706 89.108 74.0509 89.108 74.2301C89.108 74.2554 89.0675 74.2554 89.0675 74.2301C89.0675 74.0499 89.0415 73.8727 89.0242 73.6956C89.0242 73.6102 89.0097 73.5217 89.0011 73.4363C88.9924 73.3509 89.0011 73.3445 88.9866 73.2971C88.9764 73.2546 88.9764 73.2099 88.9866 73.1674C88.9851 73.1552 88.988 73.1429 88.9948 73.1331C89.0016 73.1233 89.0116 73.1169 89.0227 73.1152C89.0338 73.1135 89.0451 73.1168 89.054 73.1242C89.063 73.1316 89.0689 73.1426 89.0704 73.1548Z" fill="white"/>
<path d="M90.3139 78.421L77.3587 81.4099C77.3587 81.4099 78.913 101.121 78.8548 101.336C78.8548 101.336 72.2418 102.285 66.9474 101.969C66.9474 101.969 58.0438 97.7621 51.9635 105.021L51.0903 117.755C68.0272 119.988 90.7068 118.954 93.7135 112.694C96.9909 105.862 90.3139 78.421 90.3139 78.421Z" fill="#263238"/>
<path d="M78.8315 101.254C77.3936 101.254 74.9836 101.548 73.5458 101.611C72.1079 101.675 70.6963 101.76 69.273 101.842C68.4551 101.887 67.7682 101.842 66.9445 101.918C66.9383 101.918 66.9324 101.921 66.928 101.926C66.9236 101.93 66.9212 101.937 66.9212 101.943C66.9212 101.95 66.9236 101.957 66.928 101.961C66.9324 101.966 66.9383 101.969 66.9445 101.969C69.7583 102.134 72.5796 102.074 75.3853 101.788C76.2061 101.709 78.031 101.498 78.846 101.365C78.9042 101.358 78.9712 101.254 78.8315 101.254Z" fill="#455A64"/>
<path d="M66.144 100.628C65.6128 99.9876 65.0151 99.4165 64.3627 98.9261C64.3424 98.9071 64.3162 98.9482 64.3336 98.9672C64.9018 99.5477 65.4355 100.167 65.9316 100.821C66.4702 101.451 66.9653 102.123 67.4131 102.832C67.4131 102.848 67.4422 102.832 67.4335 102.816C67.0766 102.039 66.6444 101.305 66.144 100.628Z" fill="#455A64"/>
<path d="M94.6275 103.205C94.6129 102.51 94.5547 101.814 94.5052 101.118C94.4092 99.7421 94.284 98.3694 94.1152 97.0062C93.7746 94.2481 93.3322 91.5122 92.7676 88.8016C92.6075 88.0425 92.4445 87.2866 92.2669 86.5338C92.106 85.7629 91.9049 85.0026 91.6644 84.2565C91.6441 84.1964 91.5451 84.2028 91.5567 84.2724C91.647 84.9397 91.8129 85.6039 91.9468 86.2618C92.0807 86.9197 92.2233 87.5966 92.3543 88.2671C92.6191 89.6303 92.8636 91.003 93.0848 92.3789C93.5272 95.1116 93.8823 97.857 94.1821 100.602C94.2665 101.377 94.3364 102.152 94.4121 102.927C94.4528 103.313 94.5954 106.406 94.6013 106.811C94.6013 106.846 94.6537 106.843 94.6507 106.811C94.6216 106.47 94.6507 104.24 94.6275 103.205Z" fill="#455A64"/>
<path d="M78.8286 99.1159C78.7995 98.7331 78.683 97.2624 78.5375 96.9777C78.5361 96.9743 78.5339 96.9715 78.5311 96.9694C78.5282 96.9674 78.5249 96.9663 78.5215 96.9663C78.5181 96.9663 78.5148 96.9674 78.5119 96.9694C78.5091 96.9715 78.5068 96.9743 78.5055 96.9777C78.4094 97.294 78.5404 98.8154 78.5724 99.1918C78.6045 99.5681 78.7936 101.203 78.8635 101.333C78.8659 101.337 78.8691 101.34 78.8729 101.342C78.8767 101.345 78.881 101.346 78.8853 101.346C78.8896 101.346 78.8939 101.345 78.8977 101.342C78.9015 101.34 78.9048 101.337 78.9072 101.333C78.9175 100.593 78.8913 99.8529 78.8286 99.1159Z" fill="#455A64"/>
<path d="M90.7651 105.404C90.7185 102.924 90.5613 100.447 90.3314 97.9804C89.8773 93.1127 89.138 88.2797 88.3463 83.4658C88.2474 82.8743 88.1513 82.286 88.0553 81.6946C88.0553 81.663 88.0058 81.6756 88.0116 81.7104C88.7509 86.5243 89.5106 91.3414 90.0141 96.1965C90.2615 98.6066 90.4536 101.023 90.5468 103.446C90.5933 104.622 90.6224 105.799 90.6166 106.979C90.6309 107.966 90.547 108.952 90.3663 109.92C90.1891 110.88 89.7768 111.769 89.1729 112.495C88.5247 113.182 87.7371 113.695 86.8735 113.991C85.9367 114.327 84.9785 114.588 84.0066 114.772C82.9355 115.002 81.8585 115.19 80.7758 115.335C76.4418 115.927 72.0614 115.933 67.7012 115.838C63.2305 115.74 58.7598 115.56 54.2891 115.506C53.7302 115.506 53.1685 115.49 52.6096 115.478C52.6034 115.478 52.5975 115.48 52.5932 115.485C52.5888 115.49 52.5863 115.496 52.5863 115.503C52.5863 115.51 52.5888 115.516 52.5932 115.521C52.5975 115.525 52.6034 115.528 52.6096 115.528C54.9148 115.607 57.2201 115.715 59.5253 115.794C61.8305 115.873 64.095 115.946 66.3798 116.012C70.7923 116.145 75.2194 116.211 79.6144 115.696C81.7453 115.476 83.8578 115.081 85.9334 114.513C86.8082 114.29 87.6458 113.921 88.4162 113.418C89.1492 112.913 89.7356 112.193 90.1073 111.34C90.8989 109.522 90.8058 107.371 90.7651 105.404Z" fill="#455A64"/>
<path d="M90.3343 80.6255C87.1675 81.16 84.0095 81.7325 80.8806 82.4853C79.9899 82.6972 79.108 82.9534 78.2115 83.1463C78.1824 83.1463 78.1941 83.2001 78.2261 83.1938C79.0148 83.0356 79.8124 82.9344 80.604 82.7953C81.3957 82.6561 82.1874 82.5169 82.9762 82.3651C84.5509 82.0488 86.111 81.6851 87.674 81.3245C88.5675 81.1158 89.4582 80.8975 90.3459 80.6761C90.3779 80.6698 90.3634 80.6192 90.3343 80.6255Z" fill="#455A64"/>
<path d="M24.1349 98.5876C24.3037 97.6641 25.1915 94.3367 26.4634 92.2618C27.0776 91.256 29.115 88.5739 29.8631 89.023C30.6111 89.4722 30.0755 90.3167 30.0755 90.3167C30.0755 90.3167 31.0942 89.3235 31.8074 89.8517C32.5205 90.3799 31.6531 91.6609 31.6531 91.6609C31.6531 91.6609 32.7649 90.712 33.4431 91.3066C34.1213 91.9013 33.0473 93.0178 33.0473 93.0178C33.0473 93.0178 34.0282 92.11 34.4007 92.8438C34.846 93.7294 32.8639 95.1812 32.2381 96.323C32.0955 96.5855 29.703 101.833 29.703 101.833L24.1349 98.5876Z" fill="#AD6359"/>
<path d="M33.0327 93.0526C31.5774 94.1248 31.1088 94.8681 30.4132 96.5919C30.4132 96.6266 30.3491 96.614 30.3608 96.576C30.8992 94.8206 31.362 93.7959 32.9803 92.9735C33.0677 92.9324 33.1171 93.002 33.0327 93.0526Z" fill="#263238"/>
<path d="M31.6851 91.604C30.2618 92.8691 29.7495 93.663 28.8996 95.3994C28.8964 95.4035 28.8921 95.4063 28.8873 95.4075C28.8825 95.4087 28.8774 95.4082 28.8729 95.4061C28.8684 95.404 28.8646 95.4004 28.8621 95.3958C28.8595 95.3911 28.8584 95.3858 28.8589 95.3805C29.5603 93.5871 30.0406 92.5781 31.6152 91.5249C31.688 91.4901 31.7521 91.547 31.6851 91.604Z" fill="#263238"/>
<path d="M29.9533 90.4337C28.6551 91.7589 28.0585 92.6129 27.4356 94.4253C27.4314 94.4322 27.4252 94.4374 27.4181 94.4401C27.4109 94.4429 27.4031 94.443 27.3959 94.4405C27.3886 94.438 27.3823 94.433 27.3779 94.4262C27.3736 94.4195 27.3713 94.4114 27.3716 94.4031C27.8431 92.5054 28.5795 91.4205 29.9096 90.3957C30.0028 90.3262 30.0348 90.3641 29.9533 90.4337Z" fill="#263238"/>
<path d="M29.5545 103.202C29.5545 103.202 31.2834 101.716 31.9121 100.881C32.5408 100.046 33.8273 96.0004 33.0385 95.6493C32.0198 95.197 30.8556 97.3731 30.419 98.5212C30.419 98.5212 28.0672 97.468 26.9262 98.8375C25.7853 100.207 29.5545 103.202 29.5545 103.202Z" fill="#AD6359"/>
<path d="M32.7213 95.6272C31.5192 95.9435 31.0244 97.487 30.5209 98.5623C30.5138 98.5785 30.5034 98.5926 30.4904 98.6036C30.4774 98.6145 30.4622 98.622 30.446 98.6254C30.4299 98.6288 30.4132 98.628 30.3974 98.6231C30.3816 98.6182 30.367 98.6093 30.3549 98.5971C29.342 98.2271 27.814 98.0278 26.9059 98.7584C26.9037 98.7623 26.9008 98.7656 26.8972 98.768C26.8937 98.7704 26.8897 98.7718 26.8855 98.7722C26.8814 98.7726 26.8772 98.7719 26.8733 98.7701C26.8695 98.7684 26.8661 98.7657 26.8634 98.7622C26.8607 98.7588 26.8588 98.7547 26.8578 98.7502C26.8569 98.7458 26.8569 98.7412 26.858 98.7368C26.859 98.7325 26.861 98.7284 26.8637 98.725C26.8665 98.7216 26.87 98.719 26.8738 98.7173C27.747 97.7874 29.2635 97.8507 30.3491 98.3346C30.8527 97.2213 31.4086 95.6936 32.7184 95.6114C32.7271 95.6114 32.7271 95.624 32.7213 95.6272Z" fill="#263238"/>
<path d="M37.8411 103.357C35.0551 107.91 31.287 111.654 26.8651 114.263C24.0272 115.952 21.0438 113.981 20.5665 112.735C19.5187 110.066 23.1686 99.7136 24.4842 97.6261C24.8771 96.9935 25.4622 98.2587 27.2959 99.9856C28.1691 100.808 31.4959 100.596 31.2602 101.618C31.0913 102.345 30.0028 104.407 30.1541 104.395C30.5325 104.36 33.286 102.181 36.2024 100.144C40.2191 97.3383 38.7783 101.864 37.8411 103.357Z" fill="#AD6359"/>
<path d="M30.1599 104.312C29.9853 104.566 27.4676 110.154 26.868 111.306C26.8649 111.312 26.8641 111.319 26.8658 111.325C26.8674 111.332 26.8713 111.337 26.8767 111.34C26.8822 111.344 26.8886 111.345 26.8946 111.343C26.9006 111.341 26.9057 111.337 26.9088 111.331C27.5491 110.205 28.2127 109.095 28.7803 107.925C29.0714 107.346 29.3624 106.767 29.5778 106.163C29.6855 105.872 29.7874 105.581 29.8922 105.29C30.0246 104.986 30.1289 104.668 30.2036 104.341C30.2065 104.312 30.1774 104.281 30.1599 104.312Z" fill="#263238"/>
<path d="M30.3957 103.867L36.7991 106.533C36.7991 106.533 38.7667 103.452 39.6369 101.58C40.7837 99.1 40.2191 98.0563 37.3084 99.3341C35.3816 100.191 30.3957 103.867 30.3957 103.867Z" fill="#FFC727"/>
<path d="M31.2805 103.474C32.2381 103.791 33.1899 104.126 34.13 104.505C34.5986 104.692 35.0643 104.891 35.53 105.094C35.9957 105.296 36.4353 105.556 36.901 105.752C36.9272 105.752 36.901 105.805 36.8835 105.793C36.4294 105.571 35.9434 105.413 35.4777 105.217C35.012 105.021 34.5463 104.828 34.0776 104.638C33.1404 104.259 32.2061 103.876 31.2631 103.519C31.2369 103.509 31.2543 103.468 31.2805 103.474Z" fill="#263238"/>
<path d="M43.0307 104.04H41.817C41.7384 103.408 41.5609 102.348 41.2698 101.789C41.414 102.528 41.4688 103.285 41.4328 104.04H40.3675C40.2744 103.142 40.0211 101.51 39.3721 100.368C39.4012 100.489 39.9367 102.687 39.8087 104.04H30.4248C30.0086 101.887 30.3317 99.546 30.1687 100.058C29.8032 101.349 29.6072 102.69 29.5865 104.04H28.5416C28.512 103.497 28.5403 102.951 28.626 102.415C28.7628 101.7 28.2244 103.114 28.1545 104.04H27.4909C27.4909 104.04 27.357 100.972 28.3903 98.7901C29.7612 95.8802 28.9724 94.8048 29.5225 91.6229C30.1599 88.0014 34.5404 83.6208 38.918 88.1975C39.6685 88.9063 40.2716 89.7806 40.6871 90.7622C41.1026 91.7438 41.3211 92.8103 41.328 93.8907C41.3484 96.4812 40.807 97.8475 41.6191 99.1791C42.5291 100.608 43.0211 102.303 43.0307 104.04Z" fill="#263238"/>
<path d="M27.0572 103.607C26.947 102.503 27.046 101.385 27.3483 100.324C27.4884 99.7899 27.6695 99.2693 27.8896 98.7679C27.9944 98.5181 28.1254 98.2714 28.236 98.031C28.3502 97.7959 28.4475 97.5517 28.5271 97.3004C28.822 96.2632 29.0113 95.1941 29.0917 94.1122C29.1529 93.565 29.2227 93.0178 29.3246 92.4769C29.4238 91.933 29.578 91.4026 29.7845 90.8955C29.5144 91.9497 29.3581 93.0345 29.3188 94.128C29.2809 94.672 29.2314 95.2223 29.1616 95.7695C29.0885 96.3233 28.9687 96.8685 28.8036 97.3984C28.714 97.6621 28.608 97.9189 28.4863 98.167C28.3641 98.4169 28.2447 98.6446 28.1341 98.8913C27.9078 99.3755 27.7133 99.8765 27.552 100.391C27.3921 100.907 27.2685 101.435 27.1824 101.972C27.1358 102.241 27.1067 102.51 27.0834 102.782C27.0614 103.056 27.0527 103.332 27.0572 103.607Z" fill="#263238"/>
<path d="M41.3222 93.8749C41.3426 94.3146 41.3222 94.7542 41.3222 95.1907C41.3222 95.6272 41.3222 96.0637 41.3659 96.497C41.4003 96.924 41.4675 97.3472 41.5667 97.7621C41.59 97.8665 41.622 97.9677 41.6482 98.0784L41.6715 98.1543L41.6919 98.2176L41.7559 98.3536C41.849 98.537 41.9567 98.7236 42.0644 98.9103C42.2711 99.2866 42.4777 99.6725 42.6465 100.074C42.8254 100.475 42.9753 100.891 43.0948 101.317C43.2118 101.744 43.2927 102.181 43.3364 102.624C43.3786 103.063 43.3786 103.506 43.3364 103.946C43.308 103.074 43.1548 102.213 42.8823 101.393C42.6029 100.581 42.2448 99.8042 41.8141 99.0747C41.7093 98.885 41.6045 98.7015 41.5027 98.4991C41.4794 98.4485 41.4561 98.3947 41.4328 98.3378C41.4328 98.3093 41.4095 98.2777 41.4008 98.2492L41.3804 98.167C41.3513 98.0594 41.3193 97.9519 41.2989 97.8507C41.2067 97.4155 41.1531 96.9717 41.1388 96.5254C41.1276 96.0821 41.1412 95.6385 41.1796 95.197C41.2203 94.7447 41.2669 94.3114 41.3222 93.8749Z" fill="#263238"/>
<path d="M50.9156 118.229C50.9156 118.229 57.9244 111.208 53.1044 101.064C53.1044 101.064 50.0541 101.589 49.2537 101.418C46.8262 100.906 45.0071 99.4448 42.2099 98.3125C39.4128 97.1802 37.486 98.0721 36.3741 100.134C36.0976 100.647 34.7354 108.168 35.7309 110.838C36.5138 112.935 39.6864 113.542 39.6864 113.542C39.6864 113.542 45.5805 118.868 50.9156 118.229Z" fill="#FFC727"/>
<path d="M39.9717 99.7864C39.9513 100.131 38.8278 102.535 37.4278 102.715C36.9737 102.772 36.5721 100.084 36.5721 100.084L36.5022 99.8908L35.5039 97.2149L38.1904 94.5739L38.5804 94.2197C38.5804 94.2197 38.8103 94.9724 39.0868 95.9118C39.0868 95.9561 39.113 95.9972 39.1247 96.0447C39.1363 96.0921 39.1596 96.1459 39.1712 96.1965C39.2149 96.3357 39.2586 96.4811 39.2993 96.6235C39.3401 96.7658 39.3604 96.8386 39.3895 96.9398C39.4187 97.041 39.4478 97.1675 39.4798 97.2845C39.6965 98.1052 39.8609 98.9411 39.9717 99.7864Z" fill="#AD6359"/>
<path d="M39.0868 95.9118C38.9468 96.7389 38.6432 97.523 38.1969 98.21C37.7507 98.897 37.1724 99.4704 36.5022 99.8908L35.5039 97.2149L38.1904 94.5739L38.5804 94.2197C38.5804 94.2197 38.8103 94.9724 39.0868 95.9118Z" fill="#263238"/>
<path d="M31.0797 94.2387C32.1217 99.1791 34.9625 99.0589 35.9434 98.8122C36.834 98.5908 39.8378 97.7084 39.2702 92.6762C38.7026 87.644 36.2577 86.6097 34.1999 87.0019C32.1421 87.3941 30.0377 89.2982 31.0797 94.2387Z" fill="#AD6359"/>
<path d="M31.7608 93.2771C31.8606 93.2273 31.9578 93.1713 32.0518 93.1095C32.1596 93.0646 32.2506 92.9823 32.3109 92.8754C32.324 92.8386 32.3254 92.798 32.3149 92.7602C32.3043 92.7224 32.2824 92.6894 32.2527 92.6667C32.1875 92.6299 32.1143 92.6131 32.0409 92.6182C31.9676 92.6232 31.8969 92.6498 31.8365 92.6952C31.7042 92.7664 31.6006 92.888 31.5454 93.0368C31.5367 93.0695 31.5361 93.1042 31.5437 93.1373C31.5513 93.1703 31.5668 93.2006 31.5887 93.225C31.6106 93.2495 31.6381 93.2672 31.6683 93.2763C31.6985 93.2855 31.7304 93.2857 31.7608 93.2771Z" fill="#263238"/>
<path d="M34.881 92.3599C34.7704 92.3789 34.6685 92.3789 34.5579 92.3884C34.4469 92.4186 34.3297 92.4063 34.2261 92.3536C34.1961 92.3303 34.1741 92.2968 34.1636 92.2584C34.153 92.2201 34.1545 92.179 34.1679 92.1417C34.2038 92.0728 34.2558 92.0154 34.3187 91.9754C34.3816 91.9355 34.453 91.9142 34.5259 91.9139C34.6751 91.8891 34.8275 91.9251 34.9537 92.0151C34.9815 92.0375 35.0027 92.0681 35.0147 92.1033C35.0267 92.1386 35.029 92.1768 35.0213 92.2134C35.0135 92.25 34.9961 92.2834 34.9712 92.3094C34.9463 92.3354 34.9149 92.353 34.881 92.3599Z" fill="#263238"/>
<path d="M34.6278 93.78C34.6278 93.7642 34.6569 93.78 34.6598 93.8022C34.7354 94.1374 34.8722 94.5075 35.1779 94.5328V94.5518C34.8286 94.6024 34.651 94.109 34.6278 93.78Z" fill="#263238"/>
<path d="M34.8111 93.3499C35.2943 93.1601 35.6086 94.2197 35.1604 94.3968C34.7122 94.5739 34.4095 93.508 34.8111 93.3499Z" fill="#263238"/>
<path d="M35.0207 93.3372C35.1226 93.3689 35.239 93.4448 35.3438 93.4195C35.4485 93.3942 35.5242 93.2487 35.5708 93.1032C35.5708 93.0874 35.5708 93.1032 35.5912 93.1032C35.635 93.1948 35.645 93.3012 35.619 93.4006C35.5931 93.5 35.5331 93.5848 35.4515 93.6377C35.3613 93.6696 35.2635 93.6636 35.1772 93.6208C35.091 93.5781 35.0227 93.5017 34.9858 93.4068C34.9654 93.391 34.9799 93.3246 35.0207 93.3372Z" fill="#263238"/>
<path d="M32.6893 94.2924C32.6893 94.2924 32.6689 94.3146 32.6893 94.3272C32.797 94.6435 32.8726 95.0452 32.634 95.2508C32.634 95.2508 32.634 95.2729 32.634 95.2698C32.9454 95.1085 32.8406 94.5803 32.6893 94.2924Z" fill="#263238"/>
<path d="M32.3167 94.0457C31.819 94.1786 32.1013 95.2508 32.5612 95.1274C33.0211 95.0041 32.7329 93.9319 32.3167 94.0457Z" fill="#263238"/>
<path d="M32.1275 94.1817C32.0664 94.2608 32.0169 94.3873 31.9238 94.4253C31.8306 94.4632 31.7084 94.3747 31.6094 94.2861C31.6094 94.2861 31.6094 94.2861 31.6094 94.3019C31.6589 94.5075 31.7782 94.7004 31.9674 94.6846C32.1566 94.6688 32.2178 94.4537 32.209 94.2387C32.1945 94.1975 32.1537 94.1596 32.1275 94.1817Z" fill="#263238"/>
<path d="M33.6178 95.5861C33.6178 95.5861 33.6934 96.0984 33.7604 96.3325C33.7604 96.3546 33.8215 96.3325 33.8943 96.3325C34.0888 96.3084 34.2734 96.2262 34.4275 96.095C34.5817 95.9637 34.6993 95.7887 34.7675 95.5892C34.7675 95.5607 34.7413 95.5481 34.7267 95.5671C34.5119 95.862 34.2146 96.0729 33.8797 96.168C33.8477 96.1079 33.7749 95.2856 33.74 95.2919C33.5784 95.364 33.4266 95.4598 33.2889 95.5766C33.0997 94.5107 33.0677 93.4226 32.8668 92.3631C32.8668 92.3251 32.8057 92.3314 32.8057 92.3631C32.8054 93.5315 32.9127 94.697 33.1259 95.8423C33.1521 95.9751 33.5421 95.6525 33.6178 95.5861Z" fill="#263238"/>
<path d="M39.2964 92.9988C38.1322 93.353 36.6768 89.643 36.508 89.1843C36.6041 89.4785 37.0901 91.041 37.0145 91.1422C36.891 91.1828 36.762 91.1999 36.6332 91.1928C36.5776 91.0048 36.5085 90.8218 36.4265 90.6456C36.3916 90.5602 36.4498 90.8449 36.508 91.1991H36.2752C36.1704 90.7926 36.0157 90.4032 35.8153 90.0415C35.7396 89.9023 35.8997 90.5855 35.9404 91.2149C34.8723 91.2418 33.8101 91.3978 32.7737 91.6799C32.4826 91.7684 32.2381 91.857 32.0227 91.9424C31.8859 91.4806 31.7899 90.9682 31.7899 91.0852C31.7867 91.3949 31.8111 91.7042 31.8627 92.0088L31.5454 92.1511C31.3242 91.5028 31.3038 90.3546 31.2543 90.5507C31.1121 91.1439 31.0745 91.761 31.1437 92.3694C30.7595 92.5971 30.6693 92.7268 30.6256 92.6129C30.3686 91.277 30.5585 89.8852 31.1612 88.6878C32.1625 86.7268 34.9101 85.3699 37.1833 87.0684C37.1833 87.0684 38.7841 87.5491 39.4361 88.9914C40.0881 90.4337 39.9629 92.7964 39.2964 92.9988Z" fill="#263238"/>
<path d="M38.6299 93.236C38.6299 93.236 39.1509 91.3889 39.8931 91.5439C40.6353 91.6989 40.5509 94.1375 39.8931 94.7068C39.8144 94.7843 39.722 94.8438 39.6216 94.8817C39.5212 94.9195 39.4148 94.9349 39.3088 94.9269C39.2028 94.9189 39.0993 94.8877 39.0047 94.8352C38.91 94.7827 38.8261 94.71 38.7579 94.6214L38.6299 93.236Z" fill="#AD6359"/>
<path d="M39.8523 92.2429V92.265C39.4012 92.673 39.2702 93.2898 39.2527 93.8971C39.2661 93.8304 39.2926 93.7677 39.3305 93.7133C39.3683 93.6588 39.4166 93.614 39.4719 93.5818C39.5273 93.5496 39.5884 93.5309 39.651 93.5269C39.7137 93.5229 39.7764 93.5337 39.8349 93.5586C39.8523 93.5586 39.8349 93.5903 39.8349 93.5934C39.7347 93.5936 39.637 93.6275 39.5552 93.6903C39.4734 93.7532 39.4115 93.8419 39.3779 93.9445C39.3249 94.1183 39.2879 94.2973 39.2673 94.479C39.2673 94.536 39.1683 94.5391 39.1683 94.479V94.4759C38.9384 93.7484 39.1654 92.5781 39.8523 92.2429Z" fill="#263238"/>
<path d="M43.9621 100.675C47.7722 105.818 52.9851 114.554 50.8021 116.591C47.225 119.94 36.6041 122.098 34.165 122.48C33.1142 122.648 30.8323 115.206 31.5134 114.216C32.1945 113.226 43.447 112.245 43.5168 111.492C43.5517 111.065 42.5534 107.431 41.3513 102.911C39.9629 97.6957 42.8707 99.2202 43.9621 100.675Z" fill="#AD6359"/>
<path d="M33.3471 113.551C33.3471 113.551 30.1134 113.608 27.9973 113.754C26.8331 113.836 24.7956 114.174 23.9661 114.665C22.7087 115.398 17.8771 119.339 18.727 120.633C19.5012 121.807 23.2559 117.843 23.2559 117.843C23.2559 117.843 19.1461 121.478 20.3104 122.702C21.4746 123.926 25.1799 118.83 25.1799 118.83C25.1799 118.83 21.0322 122.667 22.4206 123.72C23.4713 124.517 27.0572 120.114 27.0572 120.114C27.0572 120.114 23.5121 123.445 24.5599 124.315C25.7241 125.264 29.2606 121.436 29.2606 121.436C32.2672 123.16 34.3483 122.645 35.7891 122.088C36.1384 121.952 33.3471 113.551 33.3471 113.551Z" fill="#AD6359"/>
<path d="M24.6094 116.49C24.1116 116.898 23.6052 117.306 23.1541 117.755C22.7029 118.204 22.243 118.682 21.8239 119.181C21.2665 119.822 20.7783 120.53 20.3686 121.291C21.1952 119.997 22.8252 118.343 23.2792 117.888C23.7333 117.432 24.1815 116.939 24.6443 116.502C24.6385 116.496 24.621 116.48 24.6094 116.49Z" fill="#263238"/>
<path d="M26.1491 118.274C25.5349 118.824 24.9062 119.346 24.3125 119.928C23.7187 120.51 23.2123 121.108 22.6592 121.727C22.6185 121.775 22.6592 121.784 22.7 121.727C23.2821 121.133 23.8468 120.63 24.426 120.042C25.0052 119.453 25.5641 118.843 26.1724 118.28C26.1724 118.28 26.1578 118.267 26.1491 118.274Z" fill="#263238"/>
<path d="M27.7237 119.548C26.7657 120.367 25.8879 121.292 25.1042 122.306C25.0634 122.357 25.1042 122.363 25.1566 122.306C26.0152 121.357 26.6817 120.63 27.7587 119.573C27.7674 119.567 27.7441 119.532 27.7237 119.548Z" fill="#263238"/>
<path d="M35.7542 113.102C35.3001 113.102 34.3483 113.339 33.286 113.418C30.8963 113.589 27.5142 113.665 26.3004 113.763C23.0464 114.029 21.1253 116.689 20.2318 117.625C19.6968 118.19 19.2151 118.812 18.7939 119.482C18.5727 119.846 18.369 120.361 18.6804 120.747C19.0588 121.218 20.4268 120.671 21.8355 119.222C21.885 119.169 21.853 119.137 21.8006 119.188C19.8243 121.013 19.018 120.829 18.7997 120.532C18.66 120.339 18.7823 119.997 18.8987 119.732C19.0877 119.351 19.3205 118.998 19.5914 118.682C20.4899 117.58 21.4896 116.58 22.5748 115.699C23.7396 114.704 25.1408 114.09 26.6148 113.928C27.6597 113.808 30.8847 113.754 33.2918 113.561C34.3454 113.475 35.2914 113.222 35.7483 113.162C35.792 113.159 35.7862 113.102 35.7542 113.102Z" fill="#263238"/>
<path d="M48.8345 107.2L41.9655 107.343C41.9655 107.343 41.0748 103.718 40.8419 101.634C40.5363 98.8786 41.4066 98.11 43.7351 100.384C45.2865 101.906 48.8345 107.2 48.8345 107.2Z" fill="#FFC727"/>
<path d="M42.7979 107.327C42.7222 107.327 42.0178 107.305 41.9655 107.327C41.8723 106.897 41.4037 104.894 41.3484 104.689C41.3484 104.654 41.3018 104.664 41.3077 104.689C41.328 104.812 41.4037 105.274 41.4939 105.79V105.771C41.4474 105.679 41.3921 105.593 41.3397 105.505C41.2873 105.416 41.2436 105.315 41.197 105.22C41.1825 105.189 41.1417 105.22 41.1563 105.246C41.2058 105.337 41.2582 105.426 41.2989 105.521C41.3397 105.616 41.3746 105.698 41.4153 105.786L41.5463 106.046C41.6482 106.628 41.7559 107.219 41.8141 107.434C42.1454 107.426 42.4759 107.395 42.8037 107.343C42.8124 107.352 42.8095 107.33 42.7979 107.327Z" fill="#263238"/>
<path d="M48.1185 106.495C47.1173 106.441 46.1189 106.403 45.1147 106.413C44.617 106.413 44.1164 106.432 43.6158 106.454C43.1151 106.476 42.6203 106.552 42.1197 106.564C42.0935 106.564 42.0964 106.612 42.1197 106.612C42.6174 106.568 43.1239 106.612 43.6216 106.587C44.1193 106.561 44.6228 106.564 45.1235 106.558C46.1218 106.558 47.1202 106.53 48.1185 106.542C48.1505 106.552 48.1447 106.495 48.1185 106.495Z" fill="#263238"/>
<path d="M46.2645 103.471C46.2645 103.471 46.2412 103.471 46.247 103.471C47.0248 104.738 47.8612 105.962 48.753 107.137C48.5743 107.146 48.3964 107.168 48.2204 107.203C48.4549 107.223 48.6903 107.223 48.9248 107.203C48.9393 107.216 46.5206 103.712 46.2645 103.471Z" fill="#263238"/>
<path d="M38.5717 77.7568C37.7771 79.8063 35.6843 81.1284 35.6843 81.1284C35.6843 81.1284 33.4606 80.091 32.4448 78.1616C31.5949 76.5549 31.9733 74.7299 33.1433 74.2618C34.8228 73.5849 35.4427 76.7921 35.4427 76.7921C35.4427 76.7921 35.6989 73.528 37.4423 73.9739C38.6473 74.2871 39.2295 76.0488 38.5717 77.7568Z" fill="#FFC727"/>
<path d="M30.2065 72.1679C30.3957 73.9739 29.3915 75.8274 29.3915 75.8274C29.3915 75.8274 27.4269 76.0551 25.9919 75.1252C24.7927 74.3472 24.3911 72.8827 25.0518 72.0382C25.9977 70.8269 27.6219 72.8416 27.6219 72.8416C27.6219 72.8416 26.6032 70.4062 28.009 69.9665C28.9811 69.6597 30.0406 70.6624 30.2065 72.1679Z" fill="#FFC727"/>
<path d="M40.9234 55.2559C41.1126 57.0619 40.1085 58.9122 40.1085 58.9122C40.1085 58.9122 38.1438 59.1431 36.7089 58.21C35.5097 57.4351 35.108 55.9707 35.7687 55.1262C36.7147 53.9148 38.3388 55.9296 38.3388 55.9296C38.3388 55.9296 37.3201 53.4942 38.7259 53.0545C39.7068 52.7604 40.7663 53.763 40.9234 55.2559Z" fill="#FFC727"/>
<path d="M36.444 64.6212C35.8007 65.7377 34.4589 66.2944 34.4589 66.2944C34.4589 66.2944 33.251 65.4594 32.8232 64.2259C32.4681 63.1948 32.8494 62.1668 33.577 62.0118C34.6161 61.7904 34.6976 63.7293 34.6976 63.7293C34.6976 63.7293 35.1342 61.8316 36.1151 62.2902C36.7991 62.6033 36.9825 63.6913 36.444 64.6212Z" fill="#FFC727"/>
<path d="M31.7113 49.879C31.6131 50.4258 31.3762 50.9319 31.0273 51.3402C30.5187 51.2617 30.0406 51.0294 29.6477 50.6697C29.214 50.2079 29.1791 49.5437 29.5371 49.259C30.0493 48.8479 30.5529 49.8916 30.5529 49.8916C30.5529 49.8916 30.3462 48.7466 30.9836 48.715C31.429 48.6676 31.7841 49.2084 31.7113 49.879Z" fill="#FFC727"/>
</svg>
